<svg xmlns="http://www.w3.org/2000/svg" viewBox="0 0 960 540" role="img" aria-labelledby="title desc">
  <title id="title">TradeFlow reviewer walkthrough poster</title>
  <desc id="desc">Poster frame showing the TradeFlow proof rail, verifier status, and blocked decision hash.</desc>
  <rect width="960" height="540" fill="#f4f7f8"/>
  <rect x="0" y="0" width="960" height="52" fill="#ffffff"/>
  <rect x="28" y="17" width="42" height="18" rx="9" fill="#2094a2"/>
  <text x="88" y="23" fill="#0e2a33" font-family="Inter, Arial, sans-serif" font-size="16" font-weight="800">TradeFlow Control Desk</text>
  <text x="88" y="39" fill="#3a5560" font-family="Inter, Arial, sans-serif" font-size="10">Synthetic shipment, live DUAL proof</text>
  <rect x="700" y="13" width="110" height="26" rx="5" fill="#0e2a33"/>
  <text x="724" y="30" fill="#ffffff" font-family="Inter, Arial, sans-serif" font-size="10" font-weight="800">PROOF BUNDLE</text>
  <rect x="820" y="13" width="112" height="26" rx="5" fill="#2094a2"/>
  <text x="842" y="30" fill="#ffffff" font-family="Inter, Arial, sans-serif" font-size="10" font-weight="800">VERIFY GATE</text>
  <rect x="28" y="74" width="904" height="42" rx="8" fill="#eef8fa" stroke="#b9dfe5"/>
  <text x="44" y="91" fill="#0e2a33" font-family="Inter, Arial, sans-serif" font-size="14" font-weight="800">Synthetic shipment, live DUAL proof.</text>
  <text x="44" y="108" fill="#3a5560" font-family="Inter, Arial, sans-serif" font-size="11">DUAL object, template, hashes, bundle, and explorer links are real testnet anchors.</text>
  <rect x="28" y="138" width="250" height="350" rx="8" fill="#ffffff" stroke="#dfe8eb"/>
  <text x="48" y="166" fill="#0e2a33" font-family="Inter, Arial, sans-serif" font-size="15" font-weight="800">Mandate controls</text>
  <rect x="48" y="190" width="210" height="42" rx="6" fill="#f8fbfc" stroke="#dfe8eb"/>
  <text x="62" y="207" fill="#6b838c" font-family="Inter, Arial, sans-serif" font-size="9" font-weight="800">CORRIDOR</text>
  <text x="62" y="223" fill="#0e2a33" font-family="Inter, Arial, sans-serif" font-size="13" font-weight="700">Singapore to Australia</text>
  <rect x="48" y="250" width="210" height="42" rx="6" fill="#f8fbfc" stroke="#dfe8eb"/>
  <text x="62" y="267" fill="#6b838c" font-family="Inter, Arial, sans-serif" font-size="9" font-weight="800">MAX INSTRUMENT</text>
  <text x="62" y="283" fill="#0e2a33" font-family="Inter, Arial, sans-serif" font-size="13" font-weight="700">$180,000</text>
  <rect x="48" y="318" width="210" height="38" rx="6" fill="#fff5f4" stroke="#e7b9b9"/>
  <text x="88" y="342" fill="#b43a3e" font-family="Inter, Arial, sans-serif" font-size="12" font-weight="800">PREVIEW BREACH</text>
  <rect x="300" y="138" width="390" height="350" rx="8" fill="#ffffff" stroke="#dfe8eb"/>
  <text x="320" y="171" fill="#0e2a33" font-family="Georgia, serif" font-size="28">Conditional trade instrument</text>
  <text x="320" y="196" fill="#3a5560" font-family="Inter, Arial, sans-serif" font-size="12">CTI-SG-AU-001 | Cargo loaded verified | Customs cleared next</text>
  <rect x="320" y="228" width="350" height="72" rx="8" fill="#151f23"/>
  <text x="340" y="252" fill="#9db0b5" font-family="Inter, Arial, sans-serif" font-size="10" font-weight="800">POLICY RESULT</text>
  <text x="340" y="279" fill="#ffffff" font-family="Inter, Arial, sans-serif" font-size="20" font-weight="900">Blocked</text>
  <text x="446" y="252" fill="#9db0b5" font-family="Inter, Arial, sans-serif" font-size="10" font-weight="800">DECISION HASH</text>
  <text x="446" y="279" fill="#ffffff" font-family="JetBrains Mono, monospace" font-size="14" font-weight="700">9b1ad8...888d</text>
  <rect x="320" y="328" width="162" height="74" rx="8" fill="#f8fbfc" stroke="#dfe8eb"/>
  <text x="338" y="351" fill="#6b838c" font-family="Inter, Arial, sans-serif" font-size="10" font-weight="800">PUBLIC WRITES</text>
  <text x="338" y="378" fill="#0e2a33" font-family="Inter, Arial, sans-serif" font-size="18" font-weight="900">false</text>
  <rect x="506" y="328" width="164" height="74" rx="8" fill="#f8fbfc" stroke="#dfe8eb"/>
  <text x="524" y="351" fill="#6b838c" font-family="Inter, Arial, sans-serif" font-size="10" font-weight="800">RECOMPUTE</text>
  <text x="524" y="378" fill="#0e2a33" font-family="Inter, Arial, sans-serif" font-size="18" font-weight="900">passes</text>
  <rect x="712" y="138" width="220" height="350" rx="8" fill="#ffffff" stroke="#dfe8eb"/>
  <text x="732" y="166" fill="#0e2a33" font-family="Inter, Arial, sans-serif" font-size="15" font-weight="800">DUAL proof rail</text>
  <rect x="732" y="190" width="180" height="42" rx="6" fill="#f8fbfc" stroke="#dfe8eb"/>
  <text x="746" y="207" fill="#6b838c" font-family="Inter, Arial, sans-serif" font-size="9" font-weight="800">SOURCE</text>
  <text x="746" y="223" fill="#0e2a33" font-family="JetBrains Mono, monospace" font-size="11" font-weight="700">dual_readback</text>
  <rect x="732" y="250" width="180" height="42" rx="6" fill="#f8fbfc" stroke="#dfe8eb"/>
  <text x="746" y="267" fill="#6b838c" font-family="Inter, Arial, sans-serif" font-size="9" font-weight="800">VERIFIER LEVEL</text>
  <text x="746" y="283" fill="#0e2a33" font-family="JetBrains Mono, monospace" font-size="11" font-weight="700">rederived</text>
  <rect x="732" y="316" width="180" height="42" rx="6" fill="#e9f7f9" stroke="#b9dfe5"/>
  <text x="762" y="342" fill="#155f69" font-family="Inter, Arial, sans-serif" font-size="12" font-weight="900">OPEN EXPLORER</text>
  <circle cx="480" cy="510" r="23" fill="#2094a2"/>
  <path d="M474 499 L496 510 L474 521 Z" fill="#ffffff"/>
</svg>
